<?xml version="1.0" standalone="no"?>
<!DOCTYPE svg PUBLIC "-//W3C//DTD SVG 20010904//EN"
 "http://www.w3.org/TR/2001/REC-SVG-20010904/DTD/svg10.dtd">
<svg version="1.0" xmlns="http://www.w3.org/2000/svg"
 width="512.000000pt" height="512.000000pt" viewBox="0 0 512.000000 512.000000"
 preserveAspectRatio="xMidYMid meet">
<metadata>
Created by potrace 1.14, written by Peter Selinger 2001-2017
</metadata>
<g transform="translate(0.000000,512.000000) scale(0.100000,-0.100000)"
fill="#000000" stroke="none">
<path d="M1780 4750 c-8 -5 -11 -10 -7 -10 5 0 -1 -12 -12 -26 -12 -15 -21
-32 -21 -40 0 -7 -3 -14 -7 -16 -16 -7 -55 -97 -48 -109 5 -7 4 -10 -2 -6 -6
4 -16 -8 -23 -26 -7 -17 -16 -41 -21 -52 -18 -40 -58 -165 -52 -165 3 0 0 -7
-7 -15 -7 -8 -10 -15 -6 -15 3 0 1 -12 -5 -27 -6 -15 -12 -45 -14 -66 -2 -21
-6 -41 -9 -45 -25 -41 -27 -429 -2 -544 9 -42 16 -80 16 -83 0 -3 4 -3 10 0 6
3 7 -1 4 -9 -3 -9 -3 -24 1 -33 5 -10 10 -27 12 -38 2 -11 8 -24 13 -29 6 -6
10 -18 10 -28 0 -10 5 -18 12 -18 6 0 9 -3 5 -6 -3 -4 0 -19 8 -35 19 -37 19
-59 -1 -59 -9 0 -28 -8 -42 -18 -40 -27 -56 -31 -70 -16 -7 8 -12 15 -11 16 1
3 -3 14 -36 93 -20 49 -54 157 -61 198 -4 24 -12 38 -23 39 -9 0 -20 2 -26 3
-94 15 -130 20 -220 30 -33 4 -63 9 -67 12 -5 2 -8 -2 -8 -9 0 -10 -2 -10 -9
1 -8 12 -55 14 -263 14 -139 0 -266 -3 -283 -7 -16 -4 -57 -9 -90 -12 -83 -6
-95 -11 -95 -40 0 -23 9 -28 48 -27 6 1 12 -3 12 -7 0 -4 19 -13 43 -19 23 -7
59 -22 81 -32 21 -10 43 -16 47 -13 5 3 9 1 9 -4 0 -4 22 -19 50 -31 27 -12
84 -45 126 -72 41 -27 80 -46 86 -43 6 4 8 3 5 -3 -9 -14 70 -76 85 -67 6 4 8
3 5 -3 -5 -9 89 -102 126 -125 7 -4 1 -11 -14 -17 -79 -30 -258 -125 -334
-178 -25 -18 -48 -33 -50 -33 -6 0 -91 -65 -109 -82 -7 -7 -30 -26 -50 -43
-78 -61 -158 -144 -150 -156 4 -8 3 -9 -5 -5 -11 7 -35 -15 -131 -120 -11 -12
-20 -25 -20 -29 0 -4 -11 -16 -25 -27 -14 -11 -25 -25 -25 -33 0 -7 -7 -16
-16 -19 -9 -4 -15 -9 -12 -11 3 -3 52 6 109 19 57 14 118 27 134 30 17 3 71
12 120 20 50 9 115 18 145 21 74 7 273 6 333 -1 l48 -7 -48 -34 c-84 -60 -92
-67 -86 -76 3 -6 1 -7 -4 -4 -6 4 -23 -5 -37 -18 -15 -14 -31 -25 -37 -25 -5
0 -9 -7 -9 -15 0 -8 -4 -15 -10 -15 -11 0 -110 -94 -110 -105 0 -3 -13 -18
-30 -32 -16 -13 -30 -32 -30 -41 0 -8 -3 -12 -6 -9 -7 7 -115 -133 -115 -148
0 -2 -11 -17 -24 -31 -14 -15 -23 -29 -21 -31 2 -3 -5 -14 -16 -25 -11 -11
-18 -28 -15 -38 3 -11 0 -17 -7 -14 -6 2 -16 -6 -22 -18 -6 -13 -48 -95 -93
-182 -45 -88 -80 -165 -77 -173 3 -8 2 -12 -2 -9 -4 2 -14 -10 -21 -27 -7 -18
-19 -46 -27 -64 -8 -17 -14 -34 -14 -37 0 -6 52 15 60 25 3 3 17 9 32 12 15 4
33 13 40 20 7 6 18 12 23 12 6 0 60 17 120 37 118 39 222 64 300 73 17 2 30 4
30 5 0 3 98 9 245 15 80 3 153 7 163 9 16 4 16 2 -2 -27 -52 -86 -81 -139 -81
-148 0 -6 -8 -23 -18 -37 -10 -15 -27 -47 -36 -72 -10 -25 -24 -58 -31 -75
-31 -69 -56 -149 -51 -162 3 -8 2 -12 -2 -9 -10 6 -35 -82 -27 -95 4 -5 2 -9
-3 -9 -5 0 -13 -20 -19 -45 -7 -33 -7 -45 1 -45 6 0 6 -4 -2 -9 -15 -9 -25
-55 -26 -118 -1 -22 -4 -39 -8 -37 -4 3 -7 -4 -7 -13 0 -10 -2 -43 -5 -73 -12
-112 -14 -167 -7 -177 3 -5 20 6 38 24 17 18 30 33 28 33 -1 0 62 66 141 146
79 81 141 151 137 157 -3 6 -1 7 6 3 7 -5 40 20 84 63 105 102 184 171 314
276 52 42 123 89 127 84 2 -2 6 -22 9 -44 17 -125 76 -319 104 -342 10 -8 12
-12 6 -8 -7 3 -13 4 -13 1 0 -16 114 -226 123 -226 6 0 7 -3 4 -6 -7 -7 125
-203 155 -231 19 -17 19 -16 16 7 -2 14 -7 31 -12 39 -6 10 -5 12 2 7 9 -5 12
20 13 91 1 127 4 181 12 218 4 17 9 57 13 90 3 33 8 63 10 67 3 4 7 24 9 45 3
21 13 73 23 116 13 52 16 77 8 77 -7 0 -6 4 2 9 7 4 20 34 28 67 8 32 19 68
24 79 19 44 31 95 24 106 -4 7 -3 9 2 6 6 -3 23 31 38 76 16 45 37 98 47 118
10 20 15 39 12 43 -4 3 -2 6 4 6 10 0 21 26 19 41 -1 3 5 13 12 22 8 9 10 22
6 29 -4 7 -4 10 1 6 6 -6 49 62 42 68 -7 7 -268 -132 -279 -150 -4 -6 -8 -8
-8 -3 0 7 -50 -21 -60 -34 -3 -3 -24 -16 -48 -28 -26 -13 -40 -26 -36 -33 4
-7 3 -8 -5 -4 -6 4 -23 0 -37 -9 -26 -17 -52 -11 -36 8 6 7 15 37 21 67 13 62
17 81 29 130 5 19 9 38 10 43 1 4 2 8 3 10 0 1 2 13 5 27 2 14 11 57 20 95 18
80 16 70 44 199 23 103 24 108 39 169 8 34 7 37 -14 37 -20 0 -71 -9 -145 -25
-14 -3 -36 -7 -50 -10 -14 -2 -52 -14 -85 -25 -33 -11 -64 -22 -70 -23 -30 -8
-91 -31 -100 -37 -5 -3 -31 -14 -57 -24 -27 -10 -48 -23 -48 -28 0 -6 -2 -9
-5 -6 -3 3 5 27 17 54 12 27 23 51 23 54 0 3 7 16 15 30 27 48 100 200 100
209 0 5 5 11 10 13 6 2 12 14 15 27 2 13 11 31 20 41 8 9 15 20 15 24 0 12
228 467 235 467 3 1 33 -11 65 -25 64 -29 62 -24 29 -86 -29 -53 -48 -104 -42
-113 3 -5 2 -8 -3 -4 -5 3 -29 -36 -54 -86 -25 -51 -49 -95 -55 -99 -5 -4 -6
-8 -1 -8 5 0 3 -6 -3 -13 -6 -8 -8 -17 -4 -20 3 -4 2 -7 -4 -7 -10 0 -55 -92
-52 -106 0 -4 -3 -10 -8 -13 -5 -3 -17 -21 -26 -39 l-16 -33 37 7 c20 4 44 10
52 14 8 5 17 8 20 8 3 0 30 3 60 7 83 10 137 10 228 1 77 -7 92 -13 75 -30 -4
-3 -8 -14 -9 -22 -2 -9 -7 -37 -13 -63 -6 -25 -13 -57 -15 -71 -3 -14 -5 -25
-6 -25 -1 0 -4 -11 -6 -24 -2 -14 -20 -95 -40 -180 -20 -86 -38 -167 -40 -180
-3 -13 -6 -26 -7 -30 -1 -3 3 -6 8 -6 6 0 9 4 7 8 -1 5 2 6 7 3 9 -6 72 22 82
37 3 5 9 8 13 6 4 -1 47 16 94 39 100 47 137 63 207 90 28 10 59 23 70 27 11
5 22 9 25 9 41 9 108 31 118 39 6 5 12 6 12 2 0 -4 6 -3 13 2 6 6 29 13 50 17
21 4 36 10 33 14 -2 4 15 8 37 9 23 1 43 6 45 12 2 6 8 9 13 5 5 -3 24 -1 42
5 17 6 43 13 57 15 14 3 48 10 75 16 28 6 59 12 70 15 11 2 20 4 20 5 0 1 14
3 30 5 17 2 57 9 90 15 33 6 67 12 76 14 10 1 25 8 35 16 11 9 15 10 10 3 -9
-15 -3 -16 60 -4 27 5 81 12 119 16 39 4 75 11 80 16 6 4 17 4 25 -1 8 -5 17
-7 21 -4 12 7 141 22 269 30 47 3 90 10 95 14 6 5 17 5 25 0 8 -5 17 -7 21 -5
3 3 55 7 115 11 60 3 117 7 127 8 10 0 26 15 35 31 9 17 19 32 22 35 8 8 28
42 51 90 13 25 26 47 29 50 4 3 11 16 15 30 4 14 11 27 14 30 3 3 17 28 29 55
l23 51 -26 99 c-14 55 -28 113 -31 129 -14 76 -14 76 -124 -65 -57 -74 -107
-136 -110 -139 -4 -3 -11 -14 -17 -24 -10 -19 -11 -19 -16 0 -24 90 -32 114
-37 114 -3 0 -6 17 -8 38 -1 20 -7 38 -12 40 -5 2 -6 10 -3 19 4 11 2 14 -5 9
-8 -5 -10 -2 -6 8 10 27 -7 39 -23 17 -8 -12 -11 -26 -7 -33 4 -6 3 -8 -3 -5
-6 4 -30 -19 -54 -51 -24 -31 -48 -62 -54 -68 -5 -6 -21 -27 -35 -47 -14 -20
-28 -37 -32 -37 -5 0 -8 -7 -8 -15 0 -8 -4 -15 -8 -15 -5 0 -24 56 -43 125
-19 69 -37 125 -40 125 -14 0 -89 -111 -83 -122 4 -6 3 -8 -4 -4 -6 3 -19 -5
-29 -19 -109 -148 -133 -171 -133 -127 -1 34 -46 172 -55 165 -4 -4 -5 -2 -1
4 4 7 4 29 0 48 l-6 36 -16 -23 c-8 -13 -26 -35 -40 -50 -14 -16 -22 -28 -18
-28 4 0 -4 -10 -17 -22 -13 -13 -32 -36 -43 -53 -10 -16 -27 -39 -36 -50 -9
-11 -25 -31 -36 -45 -19 -24 -19 -24 -15 145 5 149 8 172 26 196 11 16 17 35
13 44 -3 9 -2 14 3 10 5 -3 22 21 37 52 16 32 31 60 34 63 3 3 23 40 45 83 22
42 41 70 43 62 2 -8 8 -12 14 -9 7 4 8 2 4 -4 -10 -17 45 -222 61 -222 7 0 20
12 30 28 10 15 21 32 25 37 13 17 78 100 89 113 5 7 7 17 3 24 -4 6 -3 8 4 4
6 -4 24 13 43 40 23 34 34 43 39 33 8 -14 57 -184 66 -229 3 -13 7 -26 9 -28
5 -5 115 135 115 146 0 6 7 13 16 16 9 4 14 13 10 21 -3 8 0 14 6 12 6 -1 27
19 47 45 26 35 38 44 43 34 8 -14 16 -49 17 -74 1 -7 6 -10 13 -6 6 4 8 3 4
-4 -9 -15 4 -93 15 -86 5 3 7 -1 4 -8 -3 -7 -1 -26 3 -42 l8 -29 29 38 c17 21
56 69 88 107 31 38 65 81 75 96 18 29 49 62 57 62 3 0 5 -8 5 -18 0 -10 3 -22
7 -25 3 -4 8 -19 9 -33 2 -15 6 -34 10 -43 4 -9 9 -27 11 -41 2 -13 7 -27 11
-30 4 -3 8 -16 10 -30 5 -52 12 -56 35 -20 12 19 29 42 37 51 19 20 26 30 126
159 96 124 99 130 109 195 5 28 10 57 12 65 2 8 5 29 6 45 1 17 4 32 8 35 8 7
40 163 34 168 -11 12 -376 17 -550 8 -60 -3 -129 -6 -152 -7 -23 -1 -41 -5
-39 -8 2 -3 -26 -6 -62 -7 -58 0 -112 -4 -247 -18 -16 -2 -52 -6 -80 -10 -27
-3 -77 -8 -110 -12 -33 -3 -71 -7 -85 -9 -69 -10 -110 -15 -161 -19 -31 -3
-60 -6 -65 -7 -5 -2 -34 9 -64 23 -200 93 -365 149 -446 152 -23 0 -40 4 -38
7 5 8 -106 23 -113 15 -4 -3 -12 -1 -19 5 -25 21 -347 17 -464 -6 -80 -16 -78
-17 -117 70 -19 44 -38 82 -41 85 -4 3 -8 11 -10 18 -1 8 -17 44 -34 80 -17
37 -32 69 -32 72 -1 3 -18 40 -39 83 -20 44 -37 83 -37 88 0 5 -4 9 -8 9 -5 0
-9 6 -9 13 0 14 -52 129 -62 137 -3 3 -6 10 -6 15 -1 6 -18 45 -38 89 -20 43
-37 82 -37 86 0 17 -36 39 -50 30z m1157 -1144 c18 0 33 -4 33 -8 0 -5 7 -8
16 -8 23 0 227 -59 237 -69 8 -8 -6 -40 -33 -76 -24 -33 -71 -62 -127 -78 -51
-15 -55 -15 -105 6 -29 11 -55 24 -58 28 -9 12 -55 33 -65 30 -5 -1 -7 0 -4 3
3 4 -16 29 -42 57 -39 41 -79 99 -79 115 0 7 61 10 125 6 39 -3 85 -5 102 -6z"/>
</g>
</svg>
